<?xml version="1.0" encoding="UTF-8" standalone="no"?>
<svg
   xmlns:dc="http://purl.org/dc/elements/1.1/"
   xmlns:cc="http://creativecommons.org/ns#"
   xmlns:rdf="http://www.w3.org/1999/02/22-rdf-syntax-ns#"
   xmlns:svg="http://www.w3.org/2000/svg"
   xmlns="http://www.w3.org/2000/svg"
   xmlns:sodipodi="http://sodipodi.sourceforge.net/DTD/sodipodi-0.dtd"
   xmlns:inkscape="http://www.inkscape.org/namespaces/inkscape"
   version="1.1"
   width="16"
   height="16"
   viewBox="0 0 16 16"
   id="svg4"
   sodipodi:docname="connected.svg"
   inkscape:version="0.92.4 (5da689c313, 2019-01-14)">
  <metadata
     id="metadata10">
    <rdf:RDF>
      <cc:Work
         rdf:about="">
        <dc:format>image/svg+xml</dc:format>
        <dc:type
           rdf:resource="http://purl.org/dc/dcmitype/StillImage" />
        <dc:title></dc:title>
      </cc:Work>
    </rdf:RDF>
  </metadata>
  <defs
     id="defs8" />
  <sodipodi:namedview
     pagecolor="#ffffff"
     bordercolor="#666666"
     borderopacity="1"
     objecttolerance="10"
     gridtolerance="10"
     guidetolerance="10"
     inkscape:pageopacity="0"
     inkscape:pageshadow="2"
     inkscape:window-width="1866"
     inkscape:window-height="1009"
     id="namedview6"
     showgrid="false"
     inkscape:zoom="22.627417"
     inkscape:cx="7.140179"
     inkscape:cy="16.680375"
     inkscape:window-x="54"
     inkscape:window-y="34"
     inkscape:window-maximized="1"
     inkscape:current-layer="svg4" />
  <path
     d="m 11.527004,-16.864053 a 1.6,1.6 0 0 1 1.6,1.6 v 7.9999995 a 1.6,1.6 0 0 1 -1.6,1.6 H 8.3270044 v 1.6 h 0.8 a 0.8,0.8 0 0 1 0.8,0.8 h 5.5999996 v 1.5999999 H 9.9270044 a 0.8,0.8 0 0 1 -0.8,0.80000012 h -3.2 a 0.8,0.8 0 0 1 -0.8,-0.80000012 H -0.47299556 V -3.2640535 H 5.1270044 a 0.8,0.8 0 0 1 0.8,-0.8 h 0.8 v -1.6 h -3.2 c -0.888,0 -1.6,-0.72 -1.6,-1.6 v -7.9999995 a 1.6,1.6 0 0 1 1.6,-1.6 z"
     id="path2-3"
     inkscape:connector-curvature="0"
     style="fill:#6d6d6e;stroke-width:0.80000001" />
  <path
     style="fill:#12bc00;stroke:#12bc00;stroke-width:1.99969828;stroke-linecap:round;stroke-linejoin:miter;stroke-miterlimit:4;stroke-dasharray:none;stroke-opacity:1;fill-opacity:1"
     d="M 2.0140792,13.000041 H 13.985921"
     id="path832"
     inkscape:connector-curvature="0" />
  <rect
     style="opacity:1;fill:#12bc00;fill-opacity:1;stroke:#12bc00;stroke-width:0.83101118;stroke-linecap:round;stroke-linejoin:round;stroke-miterlimit:4;stroke-dasharray:none;stroke-opacity:1"
     id="rect834"
     width="3.1689887"
     height="3.1689887"
     x="6.4155054"
     y="11.415505"
     ry="0" />
  <rect
     style="opacity:1;fill:#12bc00;fill-opacity:1;stroke:#12bc00;stroke-width:1.99952579;stroke-linecap:round;stroke-linejoin:round;stroke-miterlimit:4;stroke-dasharray:none;stroke-opacity:1"
     id="rect836"
     width="7.000474"
     height="7.000474"
     x="4.499763"
     y="1.9997631" />
  <path
     style="fill:#12bc00;fill-opacity:1;stroke:#12bc00;stroke-width:2;stroke-linecap:butt;stroke-linejoin:miter;stroke-miterlimit:4;stroke-dasharray:none;stroke-opacity:1"
     d="m 8,9.5 v 3"
     id="path838"
     inkscape:connector-curvature="0" />
</svg>
