<?xml version="1.0" encoding="UTF-8"?>
<svg xmlns="http://www.w3.org/2000/svg" width="920" height="680">
  <!-- Créer cette bannière pour le Chrome Web Store. -->
  <defs>
    <style type="text/css">
      /* Utiliser la police de caractères du logo de Kodi. */
      @import url(http://fonts.googleapis.com/css?family=Questrial);
    </style>

    <radialGradient id="radial">
      <stop offset="0%"   stop-color="#09b4e8" />
      <stop offset="100%" stop-color="black" />
    </radialGradient>

    <mask id="line">
      <g>
        <!-- Regrouper tous les éléments car Inkscape utilise seulement le
             premier enfant pour le masque.
             https://bugs.launchpad.net/inkscape/+bug/794472 -->
        <rect x="0"  y="0"   width="200" height="200" fill="white" />
        <rect x="0"  y="95"  width="200" height="10"  fill="black" />
        <rect x="0"  y="45"  width="200" height="10"  fill="black" />
        <rect x="0"  y="145" width="200" height="10"  fill="black" />
        <rect x="95" y="0"   width="10"  height="200" fill="black" />
        <circle cx="30" cy="100" r="125" fill="none" stroke="black"
                stroke-width="10" />
        <circle cx="170" cy="100" r="125" fill="none" stroke="black"
                stroke-width="10" />
      </g>
    </mask>

    <mask id="wave">
      <g fill="none" stroke="white">
        <!-- Regrouper tous les éléments car Inkscape utilise seulement le
             premier enfant pour le masque.
             https://bugs.launchpad.net/inkscape/+bug/794472 -->
        <circle cx="0" cy="50" r="5"  stroke-width="10" />
        <circle cx="0" cy="50" r="25" stroke-width="10" />
        <circle cx="0" cy="50" r="45" stroke-width="10" />
        <circle cx="0" cy="50" r="80" stroke-width="40" />
      </g>
    </mask>
  </defs>

  <rect width="100%" height="100%" fill="url(#radial)" />

  <g mask="url(#line)" transform="translate(120 240)">
    <circle cx="100" cy="100" r="100" fill="white" opacity="0.5" />
  </g>

  <g mask="url(#wave)" transform="translate(360 240) scale(2)">
    <polygon points="5,50 50,5 95,50 50,95" fill="white" stroke="white"
             stroke-width="10" stroke-linejoin="round" />
  </g>

  <g transform="translate(600 240)" fill="white" opacity="0.5">
    <path d="m 200,101.66354 c -0.64466,2.10098 -2.05866,3.63909 -3.57291,5.15347 -10.14497,10.14985 -20.25815,20.33244 -30.38112,30.50357 -3.64788,3.66363 -7.54597,3.653 -11.20771,-0.0262 -10.44815,-10.49675 -20.89711,-20.99268 -31.34118,-31.49107 -3.55824,-3.57691 -3.55661,-7.481082 0.0106,-11.066176 10.50356,-10.558928 21.00876,-21.115402 31.51639,-31.668603 3.41888,-3.434556 7.43595,-3.436193 10.85401,-0.0033 10.18654,10.227581 20.35759,20.469889 30.56124,30.677017 1.51506,1.515197 2.92254,3.060666 3.56068,5.16247 z" />
    <path d="m 99.293568,200 c -2.083109,-0.66433 -3.592466,-2.11244 -5.094489,-3.62927 -10.101776,-10.1924 -20.234524,-20.3529 -30.355859,-30.52648 -3.621807,-3.64073 -3.625881,-7.52526 -0.01223,-11.15781 10.47667,-10.52538 20.952528,-21.04995 31.431643,-31.5737 3.483259,-3.49673 7.474257,-3.50982 10.938767,-0.0303 10.47748,10.52457 20.95415,21.04995 31.42838,31.57779 3.59817,3.617 3.60876,7.57926 0.0253,11.17908 -10.20935,10.26031 -20.43582,20.50752 -30.62154,30.7891 -1.45801,1.47102 -2.95759,2.79395 -4.99017,3.37074 h -2.749767 z" />
    <path d="m 62.527829,75.064135 c 0,-11.701872 0.105134,-23.405379 -0.06601,-35.105615 -0.04971,-3.387104 0.756309,-6.032972 3.332486,-8.266497 2.072514,-1.798274 3.909497,-3.872261 5.850799,-5.823528 7.679631,-7.717524 15.35845,-15.435867 23.040527,-23.1501189 3.612841,-3.62600111 7.508479,-3.62354669 11.118879,0.00164 10.44896,10.4926589 20.8971,20.9877729 31.34362,31.4837039 3.58839,3.605548 3.58595,7.571078 -0.002,11.178261 -12.35521,12.418563 -24.71532,24.83549 -37.0738,37.252417 -10.913498,10.967181 -21.825374,21.933542 -32.740508,32.899082 -2.021985,2.03063 -3.813328,1.55856 -4.548447,-1.25666 -0.226567,-0.87214 -0.244497,-1.81546 -0.245312,-2.72605 -0.01467,-12.16248 -0.0098,-24.324965 -0.0098,-36.486631" />
    <path d="m 37.541114,100.4216 c 0,10.73974 0.01548,21.48111 -0.02119,32.22085 -0.0041,1.02022 -0.165443,2.10017 -0.529742,3.04675 -0.71393,1.86455 -2.05377,2.09526 -3.456364,0.69052 -4.920082,-4.93094 -9.82631,-9.87578 -14.737427,-14.81408 C 13.12,115.85747 7.4419788,110.15011 1.7680327,104.43867 -0.58076261,102.07506 -0.59135745,98.795134 1.748473,96.420071 12.196618,85.811236 22.647209,75.203219 33.102689,64.598474 c 0.69111,-0.701146 1.3431,-1.652645 2.517498,-1.206758 1.123053,0.425434 1.566407,1.442383 1.726145,2.569781 0.09943,0.698693 0.177667,1.408839 0.179297,2.113259 0.01059,10.782281 0.0073,21.56538 0.0073,32.346844 z" />
  </g>

  <text x="50%" y="520" text-anchor="middle" fill="white"
        font-family="Questrial" font-size="64">Cast Kodi</text>
</svg>
