<svg role="img" viewBox="0 0 16 16" xmlns="http://www.w3.org/2000/svg">
  <g fill="white">
    <path
      d="M 13.451013,4.2767608 13.363439,3.8327524 C 13.284486,3.4340782 13.106017,3.0574043 12.69932,2.9134016 12.568621,2.8674007 12.42067,2.848067 12.321152,2.7527319 12.220308,2.6573968 12.191116,2.5087273 12.167895,2.3713913 12.12477,2.1193866 12.084963,1.8673818 12.040512,1.6160437 12.002695,1.3993729 11.97284,1.156035 11.874649,0.9580312 11.745276,0.69135948 11.478568,0.53535652 11.213849,0.43268791 A 3.7969406,3.8154057 0 0 0 10.798528,0.30335212 C 10.135076,0.12801546 9.4384505,0.06334757 8.7570844,0.02601353 A 17.13964,17.222993 0 0 0 6.3023089,0.06734765 C 5.6952495,0.12268203 5.0550176,0.19001664 4.4778136,0.4006873 4.2668356,0.4780221 4.0492231,0.5713572 3.8886675,0.73469363 3.691622,0.93603079 3.6279305,1.2480367 3.7712363,1.4987081 3.873408,1.6767115 4.0465692,1.8027139 4.2303457,1.8853821 4.4691887,1.9933842 4.7193105,2.074719 4.9754033,2.1293867 5.688615,2.2880564 6.4277015,2.3500576 7.1561728,2.3760581 c 0.8080854,0.033334 1.6168341,0.00667 2.4216027,-0.078668 0.198372,-0.022 0.396745,-0.048668 0.5944535,-0.079335 0.233535,-0.036001 0.383476,-0.3420065 0.314476,-0.5560105 -0.08227,-0.2553382 -0.303197,-0.3540068 -0.5533195,-0.3153394 -0.309168,0.049334 -0.636914,0.072001 -0.916891,0.097335 -0.780884,0.053334 -1.5644219,0.054668 -2.3459693,0.004 A 14.74723,14.818948 0 0 1 5.9029102,1.3767058 C 5.8458533,1.370039 5.7834888,1.3600388 5.7317395,1.3527054 5.5705204,1.3287049 5.4106283,1.299371 5.2513996,1.266037 c -0.073643,-0.018 -0.073643,-0.1233356 0,-0.141336 h 0.00331 C 5.4384899,1.0847 5.6242567,1.0527 5.8106869,1.026699 h 0.00132 c 0.086912,-0.006 0.174488,-0.021334 0.2614004,-0.0320006 a 16.636743,16.71765 0 0 1 2.272993,-0.0800015 c 0.4471662,0.0126669 0.8936712,0.0446675 1.3381842,0.0960018 l 0.151268,0.020667 c 0.1771405,0.026667 0.3536195,0.058668 0.5294345,0.096669 0.260073,0.056668 0.59379,0.075335 0.709895,0.3613402 0.03649,0.091335 0.05307,0.1920037 0.07364,0.2873388 l 0.211641,0.9893521 a 0.15723833,0.158003 0 0 1 -0.132028,0.1893369 h -0.002 c -0.02455,0.004 -0.04976,0.00667 -0.07431,0.01 A 24.351373,24.469797 0 0 1 8.0053924,3.162073 24.586898,24.706468 0 0 1 4.8878274,2.9594025 C 4.7949441,2.9480689 4.6934358,2.931402 4.6111676,2.9194017 4.394882,2.8874011 4.1805868,2.8474004 3.965628,2.8120664 3.704891,2.7687322 3.4560962,2.7907326 3.2205705,2.9194017 3.0281691,3.0260704 2.8709308,3.1887402 2.7727398,3.3867439 2.670568,3.5974146 2.6407127,3.8267523 2.5955979,4.0534232 c -0.045778,0.226671 -0.1167677,0.4713423 -0.089566,0.7040134 0.05772,0.5020095 0.4066965,0.9100172 0.9089303,1.0013523 a 26.332443,26.460502 0 0 0 7.5255458,0.2506714 0.32044773,0.32200611 0 0 1 0.354946,0.3533401 l -0.0471,0.4646754 -0.675395,6.6047922 c -0.0272,0.273338 -0.03118,0.554677 -0.08293,0.824682 -0.08094,0.424675 -0.366888,0.685346 -0.7842005,0.780682 -0.382812,0.08733 -0.772922,0.133335 -1.1650226,0.136669 -0.4352252,0.0027 -0.8691233,-0.01667 -1.3043484,-0.01467 -0.4637535,0.0027 -1.0323326,-0.04 -1.3899336,-0.386674 C 5.5313767,14.467621 5.4882523,13.990278 5.4451278,13.577604 L 4.9601438,8.9021818 4.746512,6.8394761 C 4.7219643,6.6054716 4.5567645,6.3761339 4.2966909,6.3874675 4.0737708,6.3974675 3.8203318,6.5874713 3.84687,6.8401427 l 0.1512671,1.4566943 0.6296168,6.074782 c 0.097528,0.896017 0.7788936,1.378693 1.6228057,1.514695 0.4922819,0.08 0.9971696,0.096 1.497413,0.104002 0.6408955,0.01067 1.2884259,0.03533 1.9187049,-0.08133 0.9341425,-0.172003 1.6354115,-0.798681 1.7355925,-1.771367 0.225574,-2.221375 0.453138,-4.4420838 0.679376,-6.6634592 L 12.224288,6.082795 a 0.32111118,0.32267279 0 0 1 0.258747,-0.2840053 c 0.266708,-0.052001 0.522138,-0.1413361 0.712549,-0.3453399 0.301871,-0.3253395 0.362244,-0.7493476 0.255429,-1.1773557 z m -0.980584,0.5146764 c -0.0962,0.091335 -0.240832,0.1340026 -0.383476,0.1553363 C 10.484051,5.1861114 8.8585925,5.3067803 7.2384409,5.253446 6.0787253,5.2134452 4.9316153,5.0841094 3.7838419,4.9214397 3.6710549,4.9054394 3.549643,4.8847723 3.4720191,4.8014374 3.3260595,4.6441011 3.3983758,4.3280951 3.4361927,4.1380915 3.4706922,3.9647549 3.5370374,3.7320838 3.7433713,3.7074167 c 0.3211112,-0.038001 0.6939716,0.098669 1.012429,0.1466694 0.3828123,0.058668 0.7669515,0.106002 1.1524176,0.141336 1.6453631,0.1506696 3.3185916,0.1266691 4.9573191,-0.093335 0.298554,-0.040001 0.596445,-0.086668 0.892345,-0.1400026 0.264717,-0.048001 0.557299,-0.137336 0.716528,0.1373359 0.110133,0.1873369 0.124729,0.4380083 0.107479,0.6493457 A 0.36091834,0.36267354 0 0 1 12.469766,4.7914372 Z M 8.384224,7.3914865 C 7.8123276,7.6381579 7.1634707,7.9168298 6.321549,7.9168298 A 3.9037565,3.922741 0 0 1 5.2805915,7.7721604 l 0.5818482,6.0027806 c 0.043124,0.52001 0.4756957,0.920017 0.9951793,0.920017 0,0 0.8246718,0.04334 1.1000048,0.04334 0.2965633,0 1.1849267,-0.04334 1.1849267,-0.04334 0.519484,0 0.9513915,-0.400007 0.9945155,-0.920017 L 10.760712,7.1414818 A 2.6511575,2.6640505 0 0 0 9.8836265,6.9828121 c -0.548012,0 -0.989207,0.1893369 -1.4994025,0.4086744 z"
    />
  </g>
</svg>
