<?xml version="1.0" encoding="UTF-8" ?>
<svg xmlns="http://www.w3.org/2000/svg" width="16" height="16">
  <g fill="white">
    <path
      d="m 0,1.1 v 12.710089 c 0,0.599218 0.49066667,1.089245 1.0906667,1.089245 H 1.178 A 6.9333333,6.9243016 0 0 1 1.091333,13.810089 6.8666667,6.8577218 0 0 1 2.2026664,10.054987 L 5.004,14.899334 H 5.756 A 2.5133333,2.5100593 0 0 1 8,11.300695 2.5133333,2.5100593 0 0 1 10.244,14.9 h 0.698667 A 3.1333333,3.1292517 0 0 0 9.8846667,11.300695 H 14.438 A 6.8933333,6.8843537 0 0 1 14.822667,14.9 h 0.08667 C 15.509333,14.9 16,14.409307 16,13.810089 V 1.1 Z m 6.182,1.4521059 h 3.636 a 0.72733336,0.7263859 0 1 1 0,1.4527718 H 6.182 a 0.72733336,0.7263859 0 1 1 0,-1.4527718 M 8,6.9104212 a 6.9066667,6.8976697 0 0 1 6.155333,3.7630918 H 8 A 3.14,3.1359097 0 0 0 4.882,13.43591 L 2.6066667,9.497713 A 6.8933333,6.8843537 0 0 1 8,6.9104212"
    />
  </g>
</svg>
