<svg role="img" viewBox="0 0 16 16" xmlns="http://www.w3.org/2000/svg">
  <g fill="white">
    <path
      d="m 8,0.2 c -4.42,0 -8,3.5811226 -8,7.9980404 0,3.5344666 2.292,6.5317326 5.47,7.5881406 0.4,0.07531 0.5466667,-0.171958 0.5466667,-0.384573 0,-0.189953 -0.00667,-0.693163 -0.01,-1.359666 C 3.7813333,14.52449 3.312,12.968872 3.312,12.968872 2.948,12.045765 2.422,11.799158 2.422,11.799158 1.6973333,11.30328 2.478,11.313277 2.478,11.313277 c 0.8033333,0.05599 1.2253333,0.823798 1.2253333,0.823798 0.7133334,1.223034 1.8726667,0.869787 2.33,0.66517 0.072,-0.517206 0.278,-0.869787 0.5066667,-1.069738 -1.7766667,-0.199951 -3.644,-0.887782 -3.644,-3.9523642 0,-0.8731194 0.31,-1.586278 0.8233333,-2.1461409 -0.09,-0.2019505 -0.36,-1.0150846 0.07,-2.1168146 0,0 0.67,-0.2146142 2.2,0.8197991 0.64,-0.1779564 1.32,-0.2659348 2,-0.2699339 0.68,0.004 1.36,0.091977 2,0.2699339 1.5199997,-1.0344133 2.1899997,-0.8197991 2.1899997,-0.8197991 0.43,1.10173 0.16,1.9148641 0.08,2.1168146 0.51,0.5598629 0.82,1.2730215 0.82,2.1461409 0,3.0725802 -1.87,3.7490812 -3.6499997,3.9457002 0.28,0.239941 0.54,0.730487 0.54,1.479638 0,1.070403 -0.01,1.930193 -0.01,2.190129 0,0.209949 0.1399997,0.459887 0.5499997,0.379907 C 13.71,14.726441 16,11.727176 16,8.1980404 16,3.7811226 12.418,0.2 8,0.2"
    />
  </g>
</svg>
