<?xml version="1.0" encoding="UTF-8" ?>
<svg xmlns="http://www.w3.org/2000/svg" width="16" height="16">
  <g fill="white">
    <path
      d="M 4.6757046,12.798667 H 1.8747495 A 0.37479447,0.37466667 0 0 1 1.5046233,12.365333 L 3.3932673,0.38933333 A 0.46149069,0.46133333 0 0 1 3.8487559,0 h 4.816309 c 2.2787771,0 3.9373431,1.6586667 3.8986641,3.6666667 -0.004,0.1666666 -0.01801,0.3333333 -0.04401,0.498 A 4.5308783,4.5293333 0 0 1 8.0468541,8 H 5.8274306 A 0.46015691,0.46 0 0 0 5.3726089,8.3886667 l -0.2167406,1.3706666 -0.00867,0.055333 -0.4614907,2.9266667 -0.010003,0.058 z M 13.19461,4.0946667 c -0.0067,0.058 -0.0067,0.1166666 -0.01534,0.174 A 5.175098,5.1733333 0 0 1 8.0475211,8.6673333 H 6.0034907 L 5.8147597,9.864 5.80609,9.9193333 5.3445994,12.846 l -0.089363,0.562 -0.00933,0.05867 H 4.5716728 l -0.3314463,2.1 A 0.37479447,0.37466667 0 0 0 4.610349,16 H 7.0191704 C 7.2459143,16 7.4393137,15.834 7.474659,15.61 L 8.1095422,11.589333 A 0.46149069,0.46133333 0 0 1 8.5650308,11.2 H 9.9828485 A 4.5302115,4.5286667 0 0 0 14.455707,7.3653333 c 0.204069,-1.3 -0.310773,-2.496 -1.26043,-3.2706666 z"
    />
  </g>
</svg>
