<?xml version="1.0" encoding="UTF-8"?>
<svg xmlns="http://www.w3.org/2000/svg" width="16" height="16">
  <g fill="#737373">
    <path d="M 2.6313599,1 H 11.38236 a 2.83,2.83 0 0 1 2.623,3 v 4 h -2 V 4 a 0.928,0.928 0 0 0 -0.833,-1 H 2.8393599 a 0.928,0.928 0 0 0 -0.834,1 v 8 a 0.928,0.928 0 0 0 0.833,1 H 11.17236 a 0.928,0.928 0 0 0 0.833,-1 v -1 h 2 v 1 a 2.833,2.833 0 0 1 -2.627,3 H 1.7553599 A 1.888,1.888 0 0 1 0.00535989,13 V 4 A 2.833,2.833 0 0 1 2.6313599,1 Z"
          stroke-width="0" />
    <path d="m 8.8593599,11.146 a 0.5,0.5 0 1 1 -0.707,0.707 l -2,-2 a 0.5,0.5 0 0 1 0,-0.707 l 2,-2 a 0.5,0.5 0 0 1 0.707,0.707 L 7.7123599,9 H 14.50536 a 0.5,0.5 0 0 0 0.5,-0.5 v -2 a 0.5,0.5 0 0 1 1,0 v 2 a 1.5,1.5 0 0 1 -1.5,1.5 H 7.7123599 Z"
          stroke-width="0" />
  </g>
</svg>
